<?xml version="1.0" standalone="no"?>
<!DOCTYPE svg PUBLIC "-//W3C//DTD SVG 20010904//EN"
 "http://www.w3.org/TR/2001/REC-SVG-20010904/DTD/svg10.dtd">
<svg version="1.0" xmlns="http://www.w3.org/2000/svg"
 width="512.000000pt" height="512.000000pt" viewBox="0 0 512.000000 512.000000"
 preserveAspectRatio="xMidYMid meet">

<g transform="translate(0.000000,512.000000) scale(0.100000,-0.100000)"
fill="#000000" stroke="none">
<path d="M1716 4628 c-3 -13 -6 -44 -6 -70 0 -26 -4 -58 -10 -72 -8 -22 -16
-26 -53 -26 -51 0 -87 -22 -87 -54 0 -28 35 -46 90 -46 21 0 42 -6 47 -12 4
-7 10 -130 13 -273 l5 -260 47 -3 c42 -3 48 -1 60 25 16 33 41 41 143 42 82 1
125 -14 125 -43 0 -16 45 -26 82 -19 l28 5 2 267 3 266 35 7 c19 4 52 10 73
13 30 5 37 10 37 28 0 34 -34 57 -85 57 -53 0 -65 16 -65 89 0 27 -5 62 -10
76 -9 25 -14 27 -48 20 -20 -4 -39 -9 -41 -11 -2 -2 -6 -38 -9 -80 -4 -69 -7
-76 -29 -85 -38 -14 -219 -11 -231 4 -5 6 -13 46 -17 87 -4 41 -9 78 -11 82
-3 5 -22 8 -43 8 -32 0 -40 -4 -45 -22z m356 -274 c21 -6 33 -44 24 -77 -9
-38 -55 -57 -141 -57 -79 0 -127 16 -139 45 -9 24 -7 58 4 75 15 24 184 33
252 14z m-24 -235 c17 -6 33 -18 36 -27 28 -101 12 -116 -124 -120 -121 -5
-140 3 -140 59 0 49 14 77 43 89 31 12 148 12 185 -1z"/>
<path d="M966 4608 c-9 -17 -16 -36 -16 -43 0 -28 -37 -45 -96 -45 -33 0 -72
-6 -87 -12 l-27 -13 0 -342 0 -343 59 0 c50 0 61 3 66 19 8 27 32 31 198 31
137 0 148 -1 168 -21 26 -26 102 -38 114 -18 5 7 7 157 6 333 -2 263 -5 325
-17 344 -13 20 -22 22 -114 22 -54 0 -110 5 -124 11 -23 11 -24 16 -19 60 l6
49 -51 0 c-47 0 -52 -2 -66 -32z m273 -187 c31 -17 26 -48 -11 -71 -30 -19
-47 -20 -189 -18 -139 3 -159 5 -178 22 -33 30 -23 58 24 73 50 15 322 10 354
-6z m-11 -201 c38 -23 38 -39 -1 -58 -37 -18 -340 -21 -361 -3 -23 19 -20 47
6 65 18 13 53 16 173 16 133 0 154 -2 183 -20z m-4 -182 c33 -14 43 -45 22
-67 -14 -13 -45 -17 -179 -19 -165 -3 -212 4 -224 33 -3 9 4 26 17 41 23 23
27 24 181 24 98 0 168 -4 183 -12z"/>
<path d="M2809 4543 c-9 -10 -15 -47 -16 -107 -3 -113 -12 -124 -80 -95 -64
27 -106 24 -156 -10 -60 -41 -74 -60 -97 -127 -25 -76 -25 -140 1 -206 36 -92
84 -128 171 -128 32 0 71 9 98 21 34 15 56 19 91 14 30 -4 49 -3 54 5 4 6 7
148 8 316 2 292 1 306 -17 320 -26 18 -40 18 -57 -3z m-88 -296 c37 -28 69
-90 69 -131 0 -23 -5 -47 -10 -52 -6 -6 -20 -30 -33 -55 -20 -40 -26 -44 -62
-47 -53 -3 -85 15 -112 63 -25 45 -30 113 -10 157 26 60 116 97 158 65z"/>
<path d="M3190 4361 c-150 -31 -240 -177 -200 -323 16 -55 69 -120 120 -145
79 -41 196 -26 261 32 56 50 70 80 76 161 10 122 -40 213 -142 260 -53 25 -59
26 -115 15z m105 -134 c59 -59 67 -110 30 -189 -31 -66 -62 -84 -124 -73 -52
9 -74 29 -95 87 -31 86 -2 173 68 204 52 23 75 17 121 -29z"/>
<path d="M3726 4349 c-22 -17 -35 -20 -74 -14 -85 11 -86 8 -93 -217 -6 -212
-3 -228 51 -228 54 0 61 23 54 163 -8 144 -2 162 64 196 63 32 92 79 66 106
-21 20 -36 19 -68 -6z"/>
<path d="M4003 4347 c-73 -39 -120 -89 -137 -147 -31 -103 -14 -189 47 -251
62 -62 116 -83 194 -76 101 10 177 72 202 165 7 23 16 42 21 42 18 0 15 37 -7
89 -13 29 -23 59 -23 66 0 22 -42 67 -96 101 -66 42 -135 46 -201 11z m149
-99 c46 -32 58 -58 58 -121 0 -74 -20 -121 -62 -147 -47 -29 -87 -26 -130 10
-44 37 -62 85 -55 153 4 43 10 55 43 84 66 57 90 61 146 21z"/>
<path d="M2265 3700 c-126 -13 -292 -68 -366 -121 -21 -15 -48 -22 -92 -24
-77 -3 -172 -40 -225 -86 -39 -34 -94 -114 -124 -179 -9 -19 -27 -60 -41 -90
-143 -321 -164 -361 -253 -459 -81 -90 -190 -145 -241 -122 -21 9 -23 8 -23
-13 0 -22 52 -79 94 -103 15 -8 13 -17 -20 -89 -47 -101 -63 -169 -64 -270 0
-136 61 -275 165 -372 73 -69 204 -130 294 -139 31 -3 64 -12 73 -20 16 -14
14 -19 -18 -76 -19 -34 -46 -85 -58 -113 l-24 -51 -74 -7 c-286 -26 -553 -214
-693 -491 -38 -73 -44 -80 -76 -86 -78 -12 -137 -67 -146 -136 -5 -37 -2 -45
33 -82 52 -54 118 -71 281 -71 68 0 123 -1 123 -2 0 -2 -7 -52 -15 -113 -8
-60 -15 -127 -15 -147 l0 -38 130 0 c72 0 130 4 130 9 0 13 -54 21 -146 21
l-84 0 6 63 c18 198 78 482 130 613 30 74 54 95 139 119 80 24 183 16 258 -19
30 -15 59 -32 65 -39 34 -42 64 -333 60 -585 -3 -147 -1 -177 11 -177 11 0 14
17 13 80 -1 44 2 105 6 137 l7 56 75 -59 c125 -98 141 -103 314 -107 183 -4
247 6 356 59 l85 41 175 -42 c96 -23 276 -67 400 -98 176 -43 248 -56 330 -59
l105 -5 35 59 c19 32 40 67 46 78 10 19 105 180 479 810 95 160 232 391 305
515 73 124 169 286 213 360 44 74 116 198 162 275 45 77 109 185 142 240 139
233 173 294 173 314 l0 22 -597 -1 -598 -2 -12 47 c-15 63 -24 70 -64 56 -40
-14 -44 -10 -26 26 32 63 50 161 44 238 -9 122 -49 206 -145 303 -137 137
-400 170 -591 73 -30 -16 -46 -19 -60 -12 -63 34 -418 106 -486 99 -5 0 -42
-4 -80 -8z m314 -50 c82 -18 217 -57 234 -67 4 -2 -4 -19 -18 -37 -14 -18 -25
-37 -25 -42 0 -5 -4 -15 -9 -23 -7 -12 -21 -3 -68 39 -87 80 -126 94 -242 87
-108 -6 -201 -30 -201 -52 0 -19 26 -19 76 -1 61 21 160 28 219 16 43 -9 68
-23 128 -75 100 -86 172 -189 295 -425 114 -219 156 -416 157 -735 0 -179 -2
-209 -24 -289 -44 -167 -138 -336 -260 -468 -84 -91 -228 -162 -163 -80 28 35
61 95 85 152 29 71 67 234 58 243 -14 14 -31 -1 -31 -27 0 -12 -6 -30 -12 -39
-22 -28 -129 -69 -197 -75 l-65 -5 53 60 c210 238 307 636 237 965 -57 269
-165 492 -308 636 -111 111 -213 140 -299 83 -64 -43 -103 -86 -95 -107 5 -14
13 -10 49 24 75 68 91 75 153 69 65 -7 107 -31 181 -107 74 -76 118 -144 177
-277 84 -187 136 -398 136 -551 l0 -54 -32 7 c-57 12 -141 58 -190 103 -72 67
-98 119 -108 215 -11 104 -50 224 -80 242 -22 14 -27 -7 -9 -44 54 -112 72
-264 45 -368 -26 -99 -45 -125 -105 -145 -30 -10 -56 -16 -58 -14 -2 2 3 32
12 67 31 132 6 359 -37 333 -5 -3 -7 -18 -3 -33 30 -117 23 -277 -15 -367 -21
-49 -76 -114 -97 -114 -28 0 -106 209 -115 310 -2 23 -8 35 -18 35 -12 0 -14
-11 -11 -50 4 -62 46 -209 72 -253 10 -18 19 -35 19 -38 0 -3 -22 7 -50 22
-34 18 -58 41 -76 71 -14 25 -41 54 -59 64 -25 15 -40 36 -60 86 -38 94 -42
147 -16 206 29 66 38 127 20 127 -8 0 -22 -26 -33 -63 -25 -80 -88 -204 -121
-239 -23 -25 -30 -27 -70 -21 -37 5 -45 3 -45 -10 0 -9 9 -21 20 -27 39 -21
18 -85 -43 -130 -22 -16 -43 -27 -47 -25 -4 3 -13 47 -19 100 -38 295 70 604
261 756 82 65 130 82 211 76 70 -6 82 1 45 27 -63 45 -234 -16 -320 -113 -107
-119 -173 -240 -208 -377 -30 -115 -37 -307 -16 -417 l17 -88 -34 -42 c-57
-70 -89 -144 -95 -218 -4 -59 -1 -73 26 -130 47 -96 126 -171 237 -224 49 -23
100 -46 112 -49 14 -5 27 -23 38 -54 9 -26 30 -74 46 -108 16 -33 29 -64 29
-68 0 -10 -57 23 -108 62 -61 48 -100 91 -123 135 -20 39 -49 50 -49 19 0 -17
16 -81 38 -149 15 -47 -3 -43 -71 18 -74 66 -164 177 -210 260 -130 236 -155
442 -81 687 8 28 -8 29 -61 2 -54 -28 -109 -26 -163 6 l-44 26 50 17 c69 24
121 62 200 146 67 72 144 202 192 325 41 105 132 285 170 335 71 95 219 148
320 115 24 -8 58 -32 85 -62 42 -45 65 -54 65 -25 0 17 -77 95 -101 102 -30
10 -19 27 37 57 165 90 397 116 613 68z m689 -25 c92 -21 162 -64 222 -136 65
-78 74 -98 94 -196 20 -95 11 -168 -29 -260 -40 -90 -80 -132 -162 -170 -61
-28 -85 -34 -155 -36 -117 -3 -133 3 -154 60 -53 145 -166 358 -260 490 l-45
62 25 48 c28 56 45 72 106 104 93 48 237 61 358 34z m376 -747 c8 -87 -1 -98
-80 -98 l-52 0 -11 46 c-14 55 -2 75 64 105 67 31 71 28 79 -53z m-172 -66
c11 -42 -6 -107 -34 -127 -27 -18 -33 -12 -46 45 -5 25 -13 53 -17 62 -5 13 2
22 32 36 48 25 55 23 65 -16z m1338 10 c0 -4 -17 -36 -38 -72 -21 -36 -68
-114 -104 -175 -271 -459 -348 -589 -476 -805 -80 -135 -165 -278 -189 -317
-23 -40 -43 -75 -43 -78 0 -3 -15 -29 -34 -58 -19 -28 -100 -164 -181 -302
-259 -439 -377 -638 -420 -710 -36 -59 -46 -69 -66 -67 -20 3 -190 43 -822
194 -26 7 -46 15 -45 19 2 4 34 34 72 66 92 77 232 233 299 335 100 150 191
350 271 593 l26 80 98 24 c175 42 286 107 418 243 71 72 102 122 146 228 20
48 22 72 22 185 -1 117 -4 138 -29 205 -15 41 -31 80 -37 86 -6 8 2 27 22 57
16 25 30 48 30 51 0 3 -38 31 -85 61 -47 30 -85 59 -85 64 0 5 17 12 38 16 49
9 82 31 82 54 0 11 8 22 18 24 30 8 1112 7 1112 -1z m-1454 -93 c16 -61 16
-61 -60 -84 -60 -18 -140 -20 -153 -2 -6 6 -13 32 -17 57 -4 25 -9 55 -12 67
-6 21 -3 21 96 22 56 0 105 3 108 6 11 10 25 -14 38 -66z m287 -104 c20 -11
37 -24 37 -30 0 -19 -30 -55 -58 -69 -37 -19 -51 -8 -101 82 -36 62 -39 75
-30 96 l11 24 52 -41 c28 -23 68 -51 89 -62z m-1864 21 l19 -58 -30 6 c-17 3
-39 6 -49 6 -11 0 -19 5 -19 11 0 13 53 100 57 95 2 -1 11 -29 22 -60z m733
-119 c-46 -5 -86 -6 -90 -3 -3 4 2 21 11 40 8 19 19 50 22 69 l7 36 67 -67 66
-67 -83 -8z m949 21 c19 -51 35 -96 37 -100 2 -3 -14 -18 -34 -32 -28 -19 -40
-22 -46 -13 -10 16 -9 237 1 237 5 0 24 -42 42 -92z m40 33 c29 -66 67 -103
99 -96 30 7 46 -16 85 -119 70 -186 27 -366 -126 -530 -132 -141 -365 -256
-487 -241 -51 6 -112 -7 -112 -24 0 -14 24 -31 43 -31 13 0 17 -5 14 -14 -3
-8 -11 -34 -17 -58 -37 -141 -122 -353 -190 -470 -180 -315 -429 -545 -675
-624 -67 -21 -336 -31 -401 -15 -51 13 -157 84 -215 143 -36 37 -36 37 -43
152 -4 62 -11 140 -17 172 -6 33 -13 77 -16 100 -5 37 -11 45 -59 74 -80 48
-120 59 -216 60 -141 0 -226 -39 -267 -123 -22 -46 -75 -240 -86 -320 -4 -26
-13 -54 -21 -61 -22 -22 -169 -39 -241 -27 -109 17 -158 56 -157 124 2 51 46
96 97 98 17 1 39 2 47 3 8 1 35 -4 60 -11 53 -15 70 -16 70 -4 0 5 -23 18 -50
30 l-50 22 31 62 c86 170 240 317 432 412 126 63 191 72 395 57 254 -19 449
-86 591 -204 74 -61 173 -187 216 -276 20 -41 36 -62 48 -62 24 0 21 18 -11
81 -64 126 -148 229 -241 299 -154 113 -407 200 -588 200 -23 0 -45 5 -48 11
-8 12 14 61 62 141 l34 57 44 -34 c47 -35 82 -51 93 -41 3 4 -2 30 -11 60 -23
72 -23 73 24 31 56 -50 126 -93 174 -107 22 -6 48 -18 58 -26 33 -29 29 -2 -9
54 -42 65 -97 197 -84 202 5 2 44 -5 87 -15 113 -26 400 -24 535 5 54 11 106
18 117 15 29 -7 142 14 195 37 24 10 46 16 49 14 6 -6 -34 -116 -61 -169 -28
-54 -90 -125 -119 -136 -13 -5 -21 -14 -18 -19 10 -16 123 -1 173 22 77 36
191 165 287 323 20 34 61 80 100 112 111 92 205 241 252 400 14 50 21 62 35
57 10 -3 39 10 70 32 29 21 55 39 57 40 2 2 -15 48 -38 104 -22 55 -41 103
-41 106 0 17 25 -15 41 -55z m-124 -68 c-6 -146 -32 -248 -92 -368 -44 -87
-118 -186 -172 -229 -26 -20 -26 -20 -20 -1 62 191 61 185 62 443 l0 242 65 1
c36 0 81 6 100 13 65 25 63 28 57 -101z m-1677 42 c0 -2 -13 -11 -29 -20 -30
-15 -49 -7 -36 15 6 10 65 15 65 5z m150 -61 c51 -34 73 -82 77 -174 4 -63 1
-80 -17 -108 -38 -61 -151 -83 -217 -42 -50 30 -67 72 -64 164 2 105 30 157
98 182 46 16 72 12 123 -22z m-684 -1 c-4 -10 -12 -53 -18 -97 -29 -217 40
-456 191 -663 17 -24 31 -45 31 -48 0 -23 -153 22 -220 65 -123 79 -210 242
-210 396 0 83 32 204 75 280 34 61 38 64 73 64 20 0 44 5 52 10 23 15 33 12
26 -7z m1516 -38 c36 -18 38 -18 57 -1 11 10 27 16 36 13 20 -8 19 -56 -1
-155 -16 -80 -34 -116 -34 -70 0 39 -38 131 -67 162 -33 36 -62 46 -131 46
-80 -1 -140 -32 -170 -90 -20 -39 -23 -57 -20 -130 2 -62 9 -96 24 -125 46
-89 156 -127 249 -86 26 12 50 19 52 17 12 -11 -99 -179 -159 -242 -52 -54
-100 -69 -276 -85 -228 -21 -434 13 -625 104 -108 51 -173 109 -221 198 -25
45 -28 58 -24 122 3 48 12 89 28 122 24 49 135 171 177 193 21 12 21 11 11
-26 -15 -56 -5 -170 20 -219 35 -67 73 -88 162 -88 139 0 200 60 200 198 0 62
2 68 18 62 112 -48 140 -47 198 7 l47 43 -8 -53 c-6 -46 -5 -52 12 -52 10 0
50 33 88 74 79 84 83 85 230 82 63 -2 101 -8 127 -21z m-362 -26 c0 -13 -41
-59 -52 -59 -17 0 -6 40 14 54 26 19 38 20 38 5z m289 -35 c41 -20 56 -44 75
-120 21 -82 20 -122 -4 -162 -22 -36 -88 -71 -133 -72 -38 0 -87 22 -115 53
-28 30 -46 141 -33 199 9 40 43 92 69 108 26 15 105 12 141 -6z"/>
<path d="M3124 3607 c-40 -22 -73 -73 -100 -153 -23 -68 -26 -91 -22 -169 5
-97 29 -161 82 -218 59 -64 198 -96 304 -72 57 13 141 59 157 85 10 16 -16
128 -51 216 -61 156 -152 260 -266 306 -51 20 -76 21 -104 5z m91 -37 c25 -11
66 -34 91 -51 l45 -31 -69 -63 c-76 -70 -139 -166 -170 -258 -15 -44 -22 -55
-30 -44 -35 42 -55 159 -42 247 16 102 77 208 127 220 1 0 22 -9 48 -20z m173
-132 c17 -21 62 -111 58 -115 -2 -2 -19 5 -37 16 -19 12 -55 24 -81 27 -27 4
-48 9 -47 13 0 8 79 71 89 71 4 0 12 -6 18 -12z m-40 -118 c17 -11 32 -26 32
-33 0 -14 -127 -80 -139 -72 -14 8 -22 85 -11 105 14 27 74 26 118 0z m153
-150 l20 -65 -33 -27 c-44 -38 -59 -36 -52 5 3 17 7 37 9 44 5 14 -10 121 -21
148 -6 16 0 14 25 -10 21 -19 38 -51 52 -95z m-301 63 c1 -37 42 -106 95 -160
l56 -56 -68 5 c-80 6 -153 38 -153 68 0 27 51 160 61 160 5 0 9 -8 9 -17z
m160 -27 c0 -24 -41 -107 -50 -101 -5 3 -18 19 -30 35 l-21 29 38 25 c43 28
63 32 63 12z m50 -76 c0 -55 -3 -72 -16 -77 -8 -3 -22 1 -31 9 -13 14 -13 19
0 44 8 16 18 44 22 62 12 55 25 35 25 -38z"/>
<path d="M1832 2450 c0 -19 2 -27 5 -17 2 9 2 25 0 35 -3 9 -5 1 -5 -18z"/>
<path d="M1922 2068 c-11 -11 7 -70 36 -115 23 -37 73 -31 111 13 l32 36 44
-21 c56 -26 85 -26 113 -1 19 18 20 24 11 42 -11 20 -13 20 -24 5 -14 -20 -71
-23 -89 -4 -7 7 -18 22 -25 35 -17 31 -34 27 -55 -12 -10 -19 -31 -46 -46 -61
l-28 -27 -26 56 c-29 61 -38 70 -54 54z"/>
</g>
</svg>
